# xmcd
#
# Track frame offsets:
#	150
#	14925
#	30000
#	45825
#	61575
#	74475
#	90900
#	111000
#	126675
#	140850
#	154500
#	170775
#	186075
#	198675
#
# Disc length: 2875 seconds
#
# Revision: 2
# Processed by: cddbd v1.5.2PL0 Copyright (c) Steve Scherf et al.
# Submitted via: EasyCDDAExtractor 15.2.5.1
#
DISCID=c20b390e
DTITLE=陳思安 (7) - 餐廳小唱(台灣版)
DYEAR=1980
DGENRE=Ambient
TTITLE0=黄昏街頭
TTITLE1=中國之夜
TTITLE2=一顆情淚
TTITLE3=淡淡情愁
TTITLE4=綠島小夜曲
TTITLE5=相見不如懷念
TTITLE6=愛在夕陽下
TTITLE7=倆相依
TTITLE8=深情難舍
TTITLE9=珊瑚戀
TTITLE10=晚風
TTITLE11=午夜香吻
TTITLE12=你懂不懂
TTITLE13=因為我愛你
EXTD=
EXTT0=
EXTT1=
EXTT2=
EXTT3=
EXTT4=
EXTT5=
EXTT6=
EXTT7=
EXTT8=
EXTT9=
EXTT10=
EXTT11=
EXTT12=
EXTT13=
PLAYORDER=
